<svg xmlns="http://www.w3.org/2000/svg" xmlns:xlink="http://www.w3.org/1999/xlink" fill="none" version="1.1" width="16"
  height="16" viewBox="0 0 16 16">
  <g>
    <g style="opacity:0;">
      <rect x="0" y="0" width="16" height="16" rx="0" fill="#666666" fill-opacity="1" />
    </g>
    <g>
      <path
        d="M2.0000004922790526,1.3333334922790527C1.6318104922790528,1.3333334922790527,1.3333334922790527,1.6318104922790528,1.3333334922790527,2.0000004922790526C1.3333334922790527,2.368193492279053,1.6318104922790528,2.666663492279053,2.0000004922790526,2.666663492279053L14.000033492279053,2.666663492279053C14.368233492279053,2.666663492279053,14.666633492279052,2.368193492279053,14.666633492279052,2.0000004922790526C14.666633492279052,1.6318104922790528,14.368233492279053,1.3333334922790527,14.000033492279053,1.3333334922790527L2.0000004922790526,1.3333334922790527ZM14.000133492279053,5.326373492279053L7.333493492279053,5.326373492279053C7.095323492279053,5.326373492279053,6.875233492279053,5.453443492279053,6.756143492279053,5.659713492279053C6.637053492279053,5.8659734922790525,6.637053492279053,6.1201034922790525,6.756143492279053,6.326373492279052C6.875233492279053,6.532643492279052,7.095323492279053,6.659713492279053,7.333493492279053,6.659713492279053L14.000133492279053,6.659713492279053C14.368333492279053,6.659713492279053,14.666833492279054,6.3612334922790525,14.666833492279054,5.993043492279052C14.666833492279054,5.624853492279053,14.368333492279053,5.326373492279053,14.000133492279053,5.326373492279053ZM4.964793492279053,10.596203492279052C4.739023492279053,10.709253492279053,4.468763492279052,10.685053492279053,4.2666634922790525,10.533703492279052L1.6000004922790527,8.533703492279052C1.4321295922790527,8.407803492279053,1.3333334922790527,8.210203492279053,1.3333334922790527,8.000373492279053C1.3333334922790527,7.790533492279053,1.4321295922790527,7.592943492279053,1.6000004922790527,7.467033492279053L4.2666634922790525,5.467033492279053C4.468623492279052,5.315573492279053,4.738803492279053,5.291163492279052,4.964623492279053,5.403993492279053C5.190443492279053,5.516813492279053,5.333173492279053,5.747513492279053,5.333333492279053,5.999953492279053L5.333333492279053,9.999953492279053C5.333313492279053,10.252463492279052,5.190643492279053,10.483283492279053,4.964793492279053,10.596203492279052ZM14.000133492279053,9.340173492279053L7.333493492279053,9.340173492279053C7.095323492279053,9.340173492279053,6.875233492279053,9.467233492279053,6.756143492279053,9.673503492279053C6.637053492279053,9.879773492279053,6.637053492279053,10.133903492279053,6.756143492279053,10.340173492279053C6.875233492279053,10.546433492279053,7.095323492279053,10.673503492279053,7.333493492279053,10.673503492279053L14.000133492279053,10.673503492279053C14.368333492279053,10.673503492279053,14.666833492279054,10.375023492279052,14.666833492279054,10.006833492279053C14.666833492279054,9.638643492279053,14.368333492279053,9.340173492279053,14.000133492279053,9.340173492279053ZM2.0000004922790526,13.333333492279053L14.000033492279053,13.333333492279053C14.368233492279053,13.333333492279053,14.666633492279052,13.631833492279053,14.666633492279052,14.000033492279053C14.666633492279052,14.368233492279053,14.368233492279053,14.666633492279052,14.000033492279053,14.666633492279052L2.0000004922790526,14.666633492279052C1.6318104922790528,14.666633492279052,1.3333334922790527,14.368233492279053,1.3333334922790527,14.000033492279053C1.3333334922790527,13.631833492279053,1.6318104922790528,13.333333492279053,2.0000004922790526,13.333333492279053Z"
        fill-rule="evenodd" fill="#666666" fill-opacity="1" />
    </g>
  </g>
</svg>